<?xml version="1.0" encoding="UTF-8"?>
<svg xmlns="http://www.w3.org/2000/svg" xmlns:xlink="http://www.w3.org/1999/xlink" width="16px" height="16px" viewBox="0 0 16 16" version="1.1">
<g id="surface1">
<path style=" stroke:none;fill-rule:nonzero;fill:rgb(16.078432%,48.235294%,74.901962%);fill-opacity:1;" d="M 8.003906 0 C 11.929688 1.09375 13.761719 2.457031 15.863281 5.707031 C 16.03125 9.78125 15.304688 11.941406 12.863281 14.941406 C 9.039062 16.367188 6.757812 16.339844 3.152344 14.941406 C 0.617188 11.75 -0.0625 9.570312 0.148438 5.707031 C 2.402344 2.3125 4.265625 0.992188 8.003906 0 Z M 8.003906 0 "/>
<path style="fill:none;stroke-width:0.16018;stroke-linecap:butt;stroke-linejoin:miter;stroke:rgb(0%,0%,0%);stroke-opacity:1;stroke-miterlimit:4;" d="M 63.183594 162.207031 L 58.886719 168.554688 L 50.292969 181.445312 L 44.628906 198.046875 L 41.601562 204.980469 L 42.089844 216.699219 L 46.875 224.609375 L 48.632812 233.886719 L 50.878906 240.429688 L 56.054688 249.902344 L 55.664062 254.882812 L 56.738281 260.058594 L 60.839844 267.285156 L 64.550781 271.972656 L 65.722656 277.734375 " transform="matrix(0.04,0,0,0.04,0,0)"/>
<path style=" stroke:none;fill-rule:nonzero;fill:rgb(0%,0%,0%);fill-opacity:1;" d="M 8.003906 14.144531 C 8.242188 14.128906 8.429688 14.046875 8.652344 13.964844 C 8.988281 13.839844 9.269531 13.703125 9.867188 13.851562 C 10.027344 13.890625 10.222656 13.964844 10.40625 14.046875 C 10.792969 14.210938 11.238281 14.367188 11.734375 14.324219 L 11.777344 14.148438 C 11.566406 13.980469 11.484375 13.742188 11.417969 13.445312 C 11.402344 13.363281 11.386719 13.289062 11.367188 13.207031 L 11.347656 13.144531 L 11.285156 13.136719 C 10.921875 13.109375 10.660156 13.019531 10.332031 12.902344 C 10.195312 12.851562 10.042969 12.796875 9.867188 12.742188 C 9.386719 12.59375 8.949219 12.707031 8.542969 12.808594 C 8.328125 12.863281 8.210938 12.914062 8.023438 12.921875 L 7.996094 12.921875 C 7.804688 12.917969 7.6875 12.863281 7.472656 12.808594 C 7.066406 12.707031 6.628906 12.59375 6.152344 12.742188 C 5.976562 12.796875 5.824219 12.851562 5.6875 12.902344 C 5.359375 13.019531 5.097656 13.109375 4.730469 13.136719 L 4.667969 13.144531 L 4.652344 13.207031 C 4.628906 13.289062 4.617188 13.363281 4.59375 13.445312 C 4.53125 13.742188 4.460938 13.996094 4.25 14.164062 L 4.285156 14.296875 C 4.78125 14.339844 5.199219 14.203125 5.585938 14.039062 C 5.769531 13.957031 5.953125 13.882812 6.117188 13.84375 C 6.714844 13.695312 7.027344 13.839844 7.363281 13.96875 C 7.585938 14.050781 7.773438 14.132812 8.011719 14.148438 Z M 8.003906 12.816406 C 7.679688 12.730469 7.347656 12.574219 7.058594 12.359375 C 7 12.3125 6.941406 12.269531 6.882812 12.21875 C 6.859375 12.199219 6.839844 12.179688 6.816406 12.15625 C 6.445312 12.3125 5.902344 12.484375 5.347656 12.582031 C 4.886719 12.667969 4.414062 12.695312 4.015625 12.613281 C 3.605469 12.53125 3.277344 12.328125 3.121094 11.949219 C 3.097656 11.882812 3.074219 11.8125 3.058594 11.738281 C 2.742188 11.527344 2.585938 11.273438 2.535156 11.066406 C 2.523438 11.027344 2.519531 10.984375 2.515625 10.945312 C 2.511719 10.921875 2.511719 10.902344 2.515625 10.878906 C 2.296875 10.664062 2.164062 10.441406 2.144531 10.230469 C 2.144531 10.183594 2.144531 10.144531 2.152344 10.097656 C 2.15625 10.070312 2.160156 10.046875 2.167969 10.023438 L 2.171875 10.023438 C 2.0625 9.894531 1.976562 9.761719 1.914062 9.609375 C 1.851562 9.449219 1.824219 9.269531 1.832031 9.050781 C 1.445312 8.695312 1.492188 8.136719 1.730469 7.664062 C 2.007812 7.109375 2.382812 6.585938 2.542969 6.121094 C 2.632812 5.863281 2.703125 6.023438 2.703125 6.101562 C 2.703125 6.488281 2.640625 6.902344 2.5625 7.277344 C 2.554688 7.316406 2.546875 7.355469 2.519531 7.484375 C 2.480469 7.671875 2.480469 7.851562 2.535156 7.980469 C 2.558594 8.035156 2.589844 8.078125 2.628906 8.117188 C 2.667969 8.148438 2.722656 8.175781 2.789062 8.191406 C 2.9375 8.222656 3.152344 8.1875 3.4375 8.066406 C 4.136719 7.773438 4.816406 7.515625 5.300781 7.480469 C 5.839844 7.441406 6.152344 7.660156 6.050781 8.347656 C 6.035156 8.4375 6.019531 8.535156 6.003906 8.625 C 5.964844 8.855469 5.945312 8.984375 5.957031 9.105469 C 5.96875 9.199219 5.996094 9.304688 6.058594 9.414062 C 6.113281 9.503906 6.199219 9.59375 6.328125 9.6875 C 6.335938 9.667969 6.34375 9.648438 6.351562 9.632812 C 6.3125 9.238281 6.351562 8.851562 6.515625 8.484375 C 6.546875 8.417969 6.578125 8.355469 6.617188 8.292969 L 5.863281 4.617188 C 5.808594 4.363281 5.75 4.203125 5.652344 4.128906 C 5.519531 4.03125 5.300781 4.058594 5.144531 4.085938 C 5.015625 4.109375 5.015625 4.03125 5.109375 3.976562 C 5.25 3.898438 5.421875 3.785156 5.574219 3.683594 C 5.851562 3.496094 6.132812 3.332031 6.441406 3.566406 C 6.480469 3.304688 6.6875 3.164062 6.886719 3.027344 C 6.941406 2.984375 7.085938 2.90625 7.160156 2.796875 C 7.230469 2.695312 7.3125 2.65625 7.328125 2.777344 C 7.328125 2.808594 7.339844 2.871094 7.351562 2.941406 C 7.492188 2.789062 7.707031 2.699219 7.847656 2.550781 C 7.925781 2.464844 7.929688 2.386719 8.003906 2.382812 C 8.074219 2.386719 8.078125 2.464844 8.15625 2.550781 C 8.296875 2.699219 8.511719 2.789062 8.652344 2.941406 C 8.664062 2.871094 8.675781 2.808594 8.675781 2.777344 C 8.691406 2.65625 8.773438 2.691406 8.84375 2.796875 C 8.921875 2.902344 9.0625 2.984375 9.117188 3.027344 C 9.3125 3.164062 9.519531 3.304688 9.558594 3.566406 C 9.871094 3.332031 10.152344 3.496094 10.425781 3.683594 C 10.578125 3.785156 10.753906 3.898438 10.890625 3.976562 C 10.984375 4.027344 10.984375 4.105469 10.851562 4.085938 C 10.703125 4.058594 10.480469 4.03125 10.347656 4.128906 C 10.246094 4.207031 10.1875 4.363281 10.136719 4.617188 L 9.382812 8.292969 C 9.417969 8.355469 9.453125 8.417969 9.480469 8.484375 C 9.644531 8.851562 9.683594 9.242188 9.644531 9.632812 C 9.652344 9.648438 9.660156 9.667969 9.664062 9.6875 C 9.796875 9.59375 9.882812 9.503906 9.933594 9.414062 C 10 9.304688 10.027344 9.199219 10.039062 9.105469 C 10.050781 8.980469 10.03125 8.855469 9.992188 8.625 C 9.976562 8.539062 9.960938 8.4375 9.945312 8.347656 C 9.839844 7.660156 10.15625 7.441406 10.695312 7.480469 C 11.179688 7.511719 11.855469 7.773438 12.5625 8.066406 C 12.847656 8.191406 13.0625 8.222656 13.210938 8.191406 C 13.277344 8.175781 13.328125 8.152344 13.371094 8.117188 C 13.414062 8.082031 13.445312 8.035156 13.464844 7.980469 C 13.519531 7.851562 13.519531 7.671875 13.480469 7.484375 C 13.457031 7.355469 13.445312 7.316406 13.4375 7.277344 C 13.363281 6.902344 13.300781 6.488281 13.300781 6.101562 C 13.300781 6.023438 13.371094 5.863281 13.460938 6.121094 C 13.621094 6.585938 13.996094 7.109375 14.273438 7.664062 C 14.511719 8.136719 14.558594 8.699219 14.171875 9.050781 C 14.179688 9.269531 14.152344 9.449219 14.089844 9.609375 C 14.03125 9.761719 13.945312 9.894531 13.835938 10.023438 C 13.84375 10.046875 13.851562 10.070312 13.851562 10.097656 C 13.859375 10.144531 13.859375 10.1875 13.859375 10.230469 C 13.839844 10.441406 13.707031 10.660156 13.488281 10.878906 L 13.488281 10.945312 C 13.488281 10.984375 13.480469 11.027344 13.46875 11.066406 C 13.417969 11.273438 13.261719 11.527344 12.945312 11.738281 C 12.929688 11.8125 12.90625 11.882812 12.882812 11.949219 C 12.726562 12.328125 12.398438 12.527344 11.988281 12.613281 C 11.589844 12.695312 11.117188 12.664062 10.65625 12.582031 C 10.101562 12.488281 9.5625 12.3125 9.1875 12.15625 C 9.164062 12.179688 9.144531 12.199219 9.121094 12.21875 C 9.0625 12.269531 9.003906 12.3125 8.945312 12.359375 C 8.65625 12.574219 8.324219 12.730469 8 12.816406 Z M 8.003906 12.816406 "/>
<path style=" stroke:none;fill-rule:nonzero;fill:rgb(100%,100%,100%);fill-opacity:1;" d="M 7.804688 6.984375 C 7.875 7.074219 7.949219 7.167969 8.007812 7.28125 C 8.058594 7.167969 8.132812 7.074219 8.203125 6.984375 C 8.316406 6.839844 8.421875 6.707031 8.429688 6.503906 C 8.433594 6.292969 8.308594 6.125 8.1875 5.949219 C 8.121094 5.855469 8.058594 5.765625 8.007812 5.664062 C 7.957031 5.765625 7.890625 5.859375 7.824219 5.949219 C 7.703125 6.121094 7.578125 6.292969 7.582031 6.503906 C 7.585938 6.707031 7.695312 6.839844 7.808594 6.984375 Z M 7.804688 6.984375 "/>
<path style=" stroke:none;fill-rule:nonzero;fill:rgb(100%,100%,100%);fill-opacity:1;" d="M 3.148438 11.59375 C 3.320312 11.667969 3.480469 11.707031 3.640625 11.722656 C 3.785156 11.742188 3.933594 11.738281 4.089844 11.730469 C 4.203125 11.726562 4.214844 11.90625 4.089844 11.910156 C 3.925781 11.917969 3.777344 11.917969 3.621094 11.902344 C 3.503906 11.890625 3.386719 11.867188 3.265625 11.828125 C 3.269531 11.851562 3.28125 11.871094 3.289062 11.890625 C 3.414062 12.207031 3.699219 12.375 4.054688 12.449219 C 4.425781 12.523438 4.875 12.496094 5.320312 12.417969 C 5.785156 12.335938 6.238281 12.199219 6.589844 12.066406 C 6.0625 11.972656 5.660156 11.792969 5.378906 11.515625 C 5.058594 11.207031 4.910156 10.785156 4.941406 10.226562 C 4.960938 9.863281 5.070312 9.492188 5.171875 9.144531 C 5.242188 8.90625 5.3125 8.675781 5.339844 8.476562 C 5.394531 8.105469 5.300781 7.832031 4.800781 7.757812 C 4.417969 7.863281 3.972656 8.039062 3.511719 8.230469 C 3.1875 8.367188 2.941406 8.402344 2.757812 8.367188 C 2.660156 8.347656 2.585938 8.308594 2.519531 8.253906 C 2.457031 8.199219 2.40625 8.132812 2.375 8.054688 C 2.304688 7.890625 2.304688 7.675781 2.347656 7.453125 C 2.351562 7.4375 2.371094 7.339844 2.390625 7.246094 C 2.433594 7.035156 2.476562 6.839844 2.507812 6.632812 C 2.425781 6.796875 2.332031 6.957031 2.238281 7.121094 C 1.949219 7.628906 1.65625 8.136719 1.753906 8.5625 C 1.878906 9.105469 2.511719 9.226562 2.976562 9.292969 C 3.175781 9.320312 3.152344 9.5 2.933594 9.464844 C 2.679688 9.425781 2.382812 9.359375 2.148438 9.257812 C 2.101562 9.234375 2.054688 9.210938 2.011719 9.1875 C 2.015625 9.320312 2.042969 9.4375 2.082031 9.542969 C 2.28125 10.058594 2.667969 10.117188 3.164062 10.164062 C 3.394531 10.1875 3.382812 10.363281 3.152344 10.34375 C 2.902344 10.320312 2.628906 10.277344 2.421875 10.191406 C 2.386719 10.175781 2.355469 10.160156 2.324219 10.144531 C 2.273438 10.417969 2.492188 10.675781 2.753906 10.804688 C 3.023438 10.933594 3.34375 10.933594 3.550781 10.914062 C 3.710938 10.902344 3.710938 11.09375 3.554688 11.09375 C 3.386719 11.09375 3.203125 11.089844 3.027344 11.066406 C 2.90625 11.050781 2.792969 11.027344 2.691406 10.984375 C 2.695312 11 2.699219 11.011719 2.699219 11.027344 C 2.742188 11.191406 2.875 11.402344 3.140625 11.585938 Z M 3.148438 11.59375 "/>
<path style=" stroke:none;fill-rule:nonzero;fill:rgb(100%,100%,100%);fill-opacity:1;" d="M 7.460938 7.6875 C 7.070312 7.945312 6.828125 8.242188 6.6875 8.554688 C 6.578125 8.796875 6.53125 9.050781 6.523438 9.3125 C 6.625 9.164062 6.742188 9.027344 6.863281 8.890625 C 7.132812 8.585938 7.402344 8.277344 7.453125 7.800781 C 7.457031 7.765625 7.457031 7.726562 7.460938 7.6875 Z M 7.460938 7.6875 "/>
<path style=" stroke:none;fill-rule:nonzero;fill:rgb(100%,100%,100%);fill-opacity:1;" d="M 7.902344 13.511719 L 7.902344 12.984375 C 7.71875 12.96875 7.621094 12.917969 7.425781 12.871094 C 7.039062 12.773438 6.628906 12.667969 6.199219 12.800781 C 6.023438 12.855469 5.875 12.90625 5.738281 12.957031 C 5.417969 13.070312 5.15625 13.164062 4.804688 13.199219 C 4.792969 13.253906 4.777344 13.308594 4.765625 13.367188 C 4.738281 13.488281 4.714844 13.617188 4.671875 13.734375 C 4.964844 13.730469 5.230469 13.605469 5.492188 13.488281 C 5.660156 13.410156 5.824219 13.332031 5.992188 13.289062 C 6.664062 13.109375 7.121094 13.257812 7.542969 13.398438 C 7.695312 13.449219 7.757812 13.480469 7.902344 13.511719 Z M 7.902344 13.511719 "/>
<path style=" stroke:none;fill-rule:nonzero;fill:rgb(100%,100%,100%);fill-opacity:1;" d="M 12.863281 11.59375 C 12.691406 11.667969 12.53125 11.707031 12.375 11.722656 C 12.230469 11.742188 12.082031 11.738281 11.921875 11.730469 C 11.8125 11.726562 11.800781 11.90625 11.925781 11.910156 C 12.085938 11.917969 12.238281 11.917969 12.394531 11.902344 C 12.511719 11.890625 12.625 11.867188 12.75 11.828125 C 12.742188 11.851562 12.734375 11.871094 12.726562 11.890625 C 12.597656 12.207031 12.3125 12.375 11.960938 12.449219 C 11.585938 12.523438 11.140625 12.496094 10.695312 12.417969 C 10.234375 12.335938 9.777344 12.199219 9.425781 12.066406 C 9.953125 11.972656 10.359375 11.792969 10.640625 11.515625 C 10.957031 11.207031 11.109375 10.785156 11.078125 10.226562 C 11.054688 9.863281 10.945312 9.492188 10.84375 9.144531 C 10.773438 8.90625 10.703125 8.675781 10.675781 8.476562 C 10.625 8.105469 10.714844 7.832031 11.214844 7.757812 C 11.597656 7.863281 12.042969 8.039062 12.503906 8.230469 C 12.828125 8.367188 13.074219 8.402344 13.257812 8.367188 C 13.355469 8.347656 13.433594 8.308594 13.496094 8.253906 C 13.558594 8.199219 13.609375 8.132812 13.644531 8.054688 C 13.710938 7.890625 13.714844 7.675781 13.667969 7.453125 C 13.664062 7.4375 13.644531 7.339844 13.625 7.246094 C 13.582031 7.035156 13.539062 6.839844 13.507812 6.632812 C 13.589844 6.796875 13.683594 6.957031 13.777344 7.121094 C 14.070312 7.628906 14.359375 8.136719 14.257812 8.5625 C 14.132812 9.105469 13.5 9.226562 13.039062 9.292969 C 12.839844 9.320312 12.863281 9.5 13.082031 9.464844 C 13.335938 9.425781 13.632812 9.359375 13.863281 9.257812 C 13.914062 9.234375 13.957031 9.210938 14 9.1875 C 13.996094 9.320312 13.96875 9.4375 13.929688 9.542969 C 13.730469 10.058594 13.339844 10.117188 12.84375 10.164062 C 12.613281 10.1875 12.625 10.363281 12.855469 10.34375 C 13.101562 10.320312 13.378906 10.277344 13.585938 10.191406 C 13.621094 10.175781 13.652344 10.160156 13.683594 10.144531 C 13.734375 10.417969 13.515625 10.675781 13.25 10.804688 C 12.980469 10.933594 12.664062 10.933594 12.453125 10.914062 C 12.296875 10.902344 12.292969 11.09375 12.449219 11.09375 C 12.621094 11.09375 12.804688 11.089844 12.976562 11.066406 C 13.097656 11.050781 13.210938 11.027344 13.3125 10.984375 C 13.308594 11 13.308594 11.011719 13.304688 11.027344 C 13.261719 11.191406 13.132812 11.402344 12.863281 11.585938 Z M 12.863281 11.59375 "/>
<path style=" stroke:none;fill-rule:nonzero;fill:rgb(100%,100%,100%);fill-opacity:1;" d="M 8.554688 7.6875 C 8.941406 7.945312 9.1875 8.242188 9.328125 8.554688 C 9.4375 8.796875 9.488281 9.050781 9.488281 9.3125 C 9.390625 9.164062 9.269531 9.027344 9.148438 8.890625 C 8.882812 8.585938 8.609375 8.277344 8.5625 7.800781 C 8.558594 7.765625 8.554688 7.726562 8.554688 7.6875 Z M 8.554688 7.6875 "/>
<path style=" stroke:none;fill-rule:nonzero;fill:rgb(100%,100%,100%);fill-opacity:1;" d="M 8.105469 13.511719 L 8.105469 12.984375 C 8.289062 12.96875 8.386719 12.917969 8.582031 12.871094 C 8.964844 12.773438 9.378906 12.667969 9.808594 12.800781 C 9.980469 12.855469 10.128906 12.90625 10.269531 12.957031 C 10.589844 13.070312 10.851562 13.164062 11.203125 13.199219 C 11.214844 13.253906 11.226562 13.308594 11.238281 13.367188 C 11.265625 13.488281 11.292969 13.617188 11.328125 13.734375 C 11.039062 13.730469 10.769531 13.605469 10.511719 13.488281 C 10.34375 13.410156 10.179688 13.332031 10.007812 13.289062 C 9.335938 13.109375 8.882812 13.257812 8.460938 13.398438 C 8.304688 13.449219 8.242188 13.480469 8.097656 13.511719 Z M 8.105469 13.511719 "/>
<path style=" stroke:none;fill-rule:nonzero;fill:rgb(100%,100%,100%);fill-opacity:1;" d="M 8.003906 13.710938 C 8.191406 13.695312 8.3125 13.640625 8.519531 13.570312 C 8.921875 13.4375 9.351562 13.296875 9.972656 13.460938 C 10.125 13.5 10.28125 13.574219 10.441406 13.648438 C 10.542969 13.695312 10.648438 13.742188 10.753906 13.785156 C 10.953125 13.863281 11.167969 13.921875 11.402344 13.914062 C 11.429688 13.980469 11.464844 14.039062 11.507812 14.097656 C 11.132812 14.078125 10.792969 13.933594 10.480469 13.796875 C 10.289062 13.714844 10.109375 13.640625 9.929688 13.59375 C 9.28125 13.433594 8.953125 13.554688 8.589844 13.691406 C 8.355469 13.777344 8.210938 13.832031 8.003906 13.851562 C 7.796875 13.835938 7.652344 13.777344 7.421875 13.691406 C 7.058594 13.554688 6.730469 13.433594 6.082031 13.59375 C 5.902344 13.640625 5.722656 13.714844 5.53125 13.796875 C 5.21875 13.933594 4.878906 14.078125 4.503906 14.097656 C 4.542969 14.039062 4.578125 13.980469 4.609375 13.914062 C 4.84375 13.921875 5.058594 13.867188 5.261719 13.785156 C 5.367188 13.742188 5.46875 13.695312 5.570312 13.648438 C 5.726562 13.574219 5.886719 13.5 6.039062 13.460938 C 6.660156 13.296875 7.089844 13.4375 7.488281 13.570312 C 7.699219 13.640625 7.820312 13.695312 8.007812 13.710938 Z M 8.003906 13.710938 "/>
<path style="fill-rule:nonzero;fill:rgb(100%,100%,100%);fill-opacity:1;stroke-width:4.4495;stroke-linecap:butt;stroke-linejoin:miter;stroke:rgb(0%,0%,0%);stroke-opacity:1;stroke-miterlimit:4;" d="M 200.097656 350.878906 C 206.054688 350.390625 210.742188 348.4375 216.308594 346.386719 C 224.707031 343.164062 232.226562 340.429688 247.167969 344.140625 C 251.269531 345.214844 255.664062 347.070312 260.253906 349.023438 C 269.921875 353.125 280.566406 357.714844 292.96875 356.738281 L 294.140625 352.734375 C 288.867188 348.632812 287.109375 340.722656 285.449219 333.300781 C 285.058594 331.25 284.667969 329.394531 284.179688 327.34375 L 283.691406 325.78125 L 282.128906 325.683594 C 273.046875 325 266.796875 322.167969 258.691406 319.335938 C 255.175781 318.164062 252.441406 316.40625 248.046875 315.039062 C 236.035156 311.230469 223.730469 314.84375 213.574219 317.480469 C 208.203125 318.75 203.808594 322.363281 199.023438 322.558594 L 198.4375 322.558594 C 193.652344 322.363281 192.285156 318.847656 186.914062 317.480469 C 176.757812 314.84375 165.820312 312.109375 153.808594 315.820312 C 149.414062 317.1875 144.628906 320.019531 141.113281 321.289062 C 133.105469 324.21875 126.660156 325.976562 118.359375 325.683594 L 116.796875 325.78125 L 116.40625 327.34375 C 115.820312 329.394531 115.429688 331.347656 114.941406 333.300781 C 113.28125 340.722656 111.523438 348.632812 106.347656 352.734375 L 107.519531 356.738281 C 119.921875 357.8125 130.664062 353.222656 140.234375 349.023438 C 144.824219 347.070312 149.21875 345.214844 153.320312 344.140625 C 168.164062 340.332031 175.683594 343.164062 184.179688 346.386719 C 189.648438 348.4375 194.433594 350.390625 200.390625 350.878906 Z M 200.097656 350.878906 " transform="matrix(0.04,0,0,0.04,0,0)"/>
<path style=" stroke:none;fill-rule:nonzero;fill:rgb(100%,100%,100%);fill-opacity:1;" d="M 8.003906 11.324219 C 7.960938 11.324219 7.949219 11.398438 7.929688 11.464844 C 7.910156 11.527344 7.882812 11.582031 7.847656 11.640625 C 7.832031 11.667969 7.816406 11.699219 7.800781 11.730469 C 7.664062 12.035156 7.8125 12.238281 8.003906 12.433594 C 8.199219 12.226562 8.339844 12.03125 8.203125 11.730469 C 8.1875 11.699219 8.171875 11.671875 8.15625 11.640625 C 8.125 11.582031 8.101562 11.523438 8.078125 11.464844 C 8.054688 11.398438 8.046875 11.324219 8.003906 11.324219 Z M 8.003906 11.324219 "/>
<path style=" stroke:none;fill-rule:nonzero;fill:rgb(100%,100%,100%);fill-opacity:1;" d="M 8.363281 7.132812 C 8.359375 7.140625 8.351562 7.148438 8.347656 7.15625 C 8.25 7.277344 8.152344 7.40625 8.109375 7.585938 C 8.0625 7.785156 7.949219 7.800781 7.90625 7.59375 C 7.875 7.433594 7.789062 7.3125 7.703125 7.199219 L 7.703125 7.203125 C 7.6875 7.183594 7.667969 7.160156 7.652344 7.136719 C 7.652344 7.355469 7.648438 7.628906 7.632812 7.820312 C 7.574219 8.351562 7.285156 8.6875 7 9.011719 C 6.773438 9.265625 6.554688 9.515625 6.480469 9.847656 L 6.453125 9.964844 L 6.347656 9.902344 C 6.128906 9.777344 5.996094 9.644531 5.917969 9.507812 C 5.835938 9.375 5.804688 9.246094 5.789062 9.132812 C 5.773438 8.984375 5.796875 8.847656 5.835938 8.597656 C 5.847656 8.527344 5.859375 8.445312 5.878906 8.324219 C 5.957031 7.800781 5.722656 7.636719 5.316406 7.660156 C 5.269531 7.664062 5.21875 7.671875 5.164062 7.679688 C 5.503906 7.835938 5.566406 8.128906 5.511719 8.5 C 5.484375 8.714844 5.414062 8.949219 5.339844 9.199219 C 5.238281 9.535156 5.132812 9.894531 5.113281 10.238281 C 5.085938 10.742188 5.21875 11.117188 5.496094 11.390625 C 5.78125 11.667969 6.21875 11.839844 6.796875 11.921875 L 6.847656 11.949219 C 6.894531 12 6.945312 12.046875 6.996094 12.09375 C 7.050781 12.136719 7.105469 12.183594 7.160156 12.226562 C 7.351562 12.367188 7.746094 12.660156 7.976562 12.65625 C 8.21875 12.652344 8.839844 12.226562 8.839844 12.226562 C 8.839844 12.226562 8.957031 12.140625 9.007812 12.09375 C 9.058594 12.046875 9.113281 12 9.160156 11.949219 L 9.210938 11.921875 C 9.785156 11.839844 10.222656 11.667969 10.507812 11.390625 C 10.785156 11.117188 10.917969 10.742188 10.890625 10.238281 C 10.871094 9.894531 10.765625 9.535156 10.667969 9.199219 C 10.59375 8.949219 10.523438 8.714844 10.492188 8.5 C 10.441406 8.128906 10.503906 7.835938 10.839844 7.679688 C 10.789062 7.671875 10.738281 7.664062 10.691406 7.660156 C 10.285156 7.632812 10.046875 7.800781 10.128906 8.324219 C 10.148438 8.441406 10.160156 8.523438 10.171875 8.597656 C 10.214844 8.84375 10.238281 8.984375 10.21875 9.132812 C 10.203125 9.246094 10.171875 9.375 10.089844 9.507812 C 10.007812 9.644531 9.878906 9.777344 9.660156 9.902344 L 9.558594 9.964844 L 9.527344 9.847656 C 9.453125 9.515625 9.234375 9.265625 9.007812 9.011719 C 8.726562 8.6875 8.433594 8.351562 8.375 7.820312 C 8.355469 7.628906 8.351562 7.351562 8.355469 7.132812 Z M 8.363281 7.132812 "/>
<path style=" stroke:none;fill-rule:nonzero;fill:rgb(100%,100%,100%);fill-opacity:1;" d="M 7.46875 6.878906 C 7.433594 6.796875 7.40625 6.703125 7.402344 6.589844 C 7.398438 6.320312 7.535156 6.121094 7.679688 5.925781 C 7.804688 5.75 7.910156 5.636719 7.949219 5.382812 C 7.96875 5.253906 8.039062 5.273438 8.054688 5.386719 C 8.097656 5.625 8.203125 5.746094 8.335938 5.925781 C 8.472656 6.121094 8.617188 6.320312 8.609375 6.589844 C 8.605469 6.703125 8.582031 6.796875 8.542969 6.878906 C 8.542969 7.066406 8.542969 7.3125 8.542969 7.492188 C 8.847656 7.675781 9.078125 7.882812 9.25 8.105469 L 9.253906 8.085938 L 9.972656 4.597656 C 10.035156 4.300781 10.105469 4.113281 10.25 4.003906 C 10.308594 3.960938 10.371094 3.9375 10.445312 3.921875 C 10.425781 3.910156 10.402344 3.894531 10.382812 3.878906 C 10.15625 3.726562 9.929688 3.578125 9.6875 3.726562 C 9.601562 3.785156 9.558594 3.828125 9.542969 3.925781 L 9.1875 5.875 C 9.15625 6.023438 8.980469 5.996094 9.015625 5.828125 L 9.355469 3.941406 C 9.378906 3.820312 9.414062 3.691406 9.378906 3.574219 C 9.328125 3.402344 9.164062 3.285156 9.011719 3.183594 C 8.945312 3.132812 8.878906 3.089844 8.824219 3.039062 C 8.820312 3.085938 8.8125 3.128906 8.804688 3.164062 L 8.585938 5.410156 C 8.566406 5.550781 8.390625 5.53125 8.410156 5.371094 L 8.597656 3.460938 C 8.617188 3.265625 8.625 3.175781 8.480469 3.039062 C 8.417969 2.980469 8.347656 2.921875 8.277344 2.871094 C 8.207031 2.816406 8.136719 2.769531 8.078125 2.714844 C 8.050781 2.683594 8.023438 2.652344 8.003906 2.621094 C 7.984375 2.652344 7.960938 2.683594 7.929688 2.714844 C 7.871094 2.765625 7.800781 2.816406 7.730469 2.871094 C 7.660156 2.921875 7.589844 2.976562 7.527344 3.039062 C 7.382812 3.171875 7.394531 3.265625 7.410156 3.460938 L 7.597656 5.371094 C 7.617188 5.53125 7.441406 5.546875 7.421875 5.410156 L 7.203125 3.164062 C 7.195312 3.128906 7.191406 3.085938 7.183594 3.039062 C 7.125 3.089844 7.058594 3.132812 6.992188 3.183594 C 6.84375 3.285156 6.679688 3.398438 6.628906 3.574219 C 6.59375 3.691406 6.628906 3.824219 6.648438 3.941406 L 6.988281 5.828125 C 7.027344 5.996094 6.851562 6.023438 6.816406 5.875 L 6.464844 3.925781 C 6.445312 3.828125 6.40625 3.785156 6.316406 3.726562 C 6.078125 3.574219 5.851562 3.726562 5.625 3.878906 C 5.605469 3.894531 5.582031 3.910156 5.5625 3.921875 C 5.636719 3.9375 5.699219 3.964844 5.757812 4.003906 C 5.898438 4.109375 5.972656 4.300781 6.035156 4.597656 L 6.75 8.085938 L 6.753906 8.105469 C 6.921875 7.882812 7.152344 7.675781 7.457031 7.492188 C 7.460938 7.3125 7.457031 7.066406 7.460938 6.878906 Z M 7.46875 6.878906 "/>
<path style=" stroke:none;fill-rule:nonzero;fill:rgb(0%,0%,0%);fill-opacity:1;" d="M 11.550781 13.808594 C 11.5625 13.839844 11.578125 13.867188 11.59375 13.898438 C 11.234375 13.980469 10.828125 13.824219 10.460938 13.65625 C 10.179688 13.53125 9.902344 13.40625 9.640625 13.394531 C 9.339844 13.382812 9.058594 13.410156 8.78125 13.476562 C 8.507812 13.539062 8.238281 13.644531 7.960938 13.785156 C 7.957031 13.789062 7.957031 13.789062 7.957031 13.789062 L 7.941406 13.789062 C 7.941406 13.789062 7.9375 13.789062 7.9375 13.785156 C 7.9375 13.785156 7.9375 13.785156 7.9375 13.78125 C 7.660156 13.644531 7.390625 13.539062 7.113281 13.472656 C 6.839844 13.40625 6.558594 13.378906 6.257812 13.394531 C 5.992188 13.40625 5.738281 13.53125 5.492188 13.652344 C 5.164062 13.816406 4.808594 13.957031 4.449219 13.875 L 4.492188 13.785156 C 4.816406 13.859375 5.136719 13.71875 5.449219 13.5625 C 5.707031 13.4375 5.972656 13.304688 6.253906 13.289062 C 6.566406 13.277344 6.855469 13.304688 7.140625 13.375 C 7.417969 13.4375 7.6875 13.542969 7.964844 13.679688 C 8.238281 13.539062 8.511719 13.4375 8.789062 13.375 C 9.070312 13.304688 9.359375 13.277344 9.671875 13.289062 C 9.953125 13.304688 10.242188 13.433594 10.527344 13.5625 C 10.882812 13.722656 11.25 13.878906 11.582031 13.804688 Z M 11.550781 13.808594 "/>
<path style=" stroke:none;fill-rule:nonzero;fill:rgb(0%,0%,0%);fill-opacity:1;" d="M 11.339844 13 C 11.351562 13.03125 11.363281 13.0625 11.382812 13.09375 C 11.019531 13.152344 10.832031 13 10.460938 12.84375 C 10.179688 12.71875 9.902344 12.59375 9.640625 12.582031 C 9.339844 12.566406 9.058594 12.59375 8.78125 12.660156 C 8.507812 12.726562 8.238281 12.832031 7.960938 12.96875 C 7.957031 12.972656 7.957031 12.972656 7.957031 12.972656 L 7.949219 12.976562 L 7.9375 12.976562 C 7.9375 12.976562 7.933594 12.976562 7.933594 12.972656 C 7.65625 12.832031 7.386719 12.730469 7.113281 12.664062 C 6.085938 12.417969 5.375 13.257812 4.664062 13.097656 L 4.707031 13.007812 C 5.363281 13.15625 6.121094 12.324219 7.136719 12.566406 C 7.410156 12.632812 7.679688 12.738281 7.957031 12.875 C 8.234375 12.738281 8.507812 12.632812 8.78125 12.566406 C 9.066406 12.5 9.355469 12.46875 9.667969 12.484375 C 9.949219 12.5 10.234375 12.625 10.523438 12.757812 C 10.875 12.90625 11.03125 13.042969 11.359375 13.007812 Z M 11.339844 13 "/>
<path style=" stroke:none;fill-rule:nonzero;fill:rgb(0%,0%,0%);fill-opacity:1;" d="M 7.878906 12.925781 L 7.980469 12.925781 L 7.980469 13.695312 L 7.878906 13.695312 Z M 7.878906 12.925781 "/>
<path style=" stroke:none;fill-rule:nonzero;fill:rgb(0%,0%,0%);fill-opacity:1;" d="M 2.746094 5.4375 C 2.433594 5.289062 2.277344 5.214844 1.960938 5.0625 C 1.902344 5.1875 1.871094 5.253906 1.820312 5.386719 C 1.753906 5.355469 1.71875 5.34375 1.652344 5.316406 C 1.800781 4.960938 1.886719 4.789062 2.070312 4.46875 C 2.132812 4.503906 2.164062 4.523438 2.226562 4.554688 C 2.15625 4.671875 2.125 4.730469 2.0625 4.855469 C 2.371094 5.011719 2.527344 5.09375 2.835938 5.253906 C 2.796875 5.324219 2.78125 5.363281 2.746094 5.4375 Z M 2.746094 5.4375 "/>
<path style=" stroke:none;fill-rule:nonzero;fill:rgb(0%,0%,0%);fill-opacity:1;" d="M 2.148438 4.339844 C 2.195312 4.261719 2.222656 4.222656 2.269531 4.144531 C 2.460938 4.269531 2.554688 4.332031 2.746094 4.457031 C 2.816406 4.507812 2.871094 4.535156 2.894531 4.546875 C 2.933594 4.566406 2.972656 4.566406 3.015625 4.554688 C 3.054688 4.542969 3.085938 4.511719 3.121094 4.464844 C 3.152344 4.417969 3.171875 4.378906 3.167969 4.339844 C 3.164062 4.304688 3.148438 4.269531 3.125 4.242188 C 3.097656 4.21875 3.054688 4.179688 2.988281 4.128906 C 2.804688 3.992188 2.710938 3.921875 2.527344 3.78125 C 2.578125 3.707031 2.609375 3.671875 2.660156 3.601562 C 2.832031 3.742188 2.921875 3.808594 3.089844 3.949219 C 3.1875 4.027344 3.253906 4.085938 3.289062 4.128906 C 3.324219 4.171875 3.347656 4.214844 3.359375 4.257812 C 3.367188 4.304688 3.367188 4.347656 3.359375 4.398438 C 3.347656 4.449219 3.316406 4.503906 3.273438 4.566406 C 3.222656 4.640625 3.175781 4.695312 3.128906 4.722656 C 3.085938 4.753906 3.039062 4.769531 2.992188 4.773438 C 2.949219 4.777344 2.90625 4.773438 2.867188 4.757812 C 2.808594 4.738281 2.730469 4.699219 2.628906 4.636719 C 2.441406 4.519531 2.34375 4.460938 2.152344 4.34375 Z M 2.148438 4.339844 "/>
<path style=" stroke:none;fill-rule:nonzero;fill:rgb(0%,0%,0%);fill-opacity:1;" d="M 3.746094 3.941406 C 3.488281 3.703125 3.363281 3.585938 3.105469 3.347656 C 3.019531 3.441406 2.980469 3.492188 2.894531 3.585938 C 2.84375 3.542969 2.8125 3.519531 2.761719 3.472656 C 2.988281 3.203125 3.105469 3.078125 3.359375 2.84375 C 3.40625 2.894531 3.429688 2.921875 3.476562 2.976562 C 3.386719 3.058594 3.34375 3.101562 3.253906 3.191406 C 3.5 3.441406 3.625 3.5625 3.871094 3.804688 C 3.820312 3.859375 3.792969 3.886719 3.746094 3.941406 Z M 3.746094 3.941406 "/>
<path style=" stroke:none;fill-rule:nonzero;fill:rgb(0%,0%,0%);fill-opacity:1;" d="M 4.53125 3.234375 C 4.210938 2.949219 4.046875 2.808594 3.703125 2.550781 C 3.773438 2.492188 3.804688 2.464844 3.878906 2.414062 C 4.101562 2.605469 4.210938 2.703125 4.429688 2.902344 C 4.316406 2.628906 4.261719 2.488281 4.167969 2.207031 C 4.25 2.152344 4.292969 2.125 4.378906 2.070312 C 4.597656 2.28125 4.703125 2.390625 4.910156 2.609375 C 4.8125 2.328125 4.765625 2.1875 4.675781 1.894531 C 4.75 1.851562 4.792969 1.832031 4.863281 1.796875 C 4.96875 2.214844 5.027344 2.421875 5.160156 2.828125 C 5.09375 2.867188 5.0625 2.886719 4.996094 2.925781 C 4.769531 2.695312 4.65625 2.582031 4.417969 2.363281 C 4.519531 2.671875 4.574219 2.820312 4.699219 3.121094 C 4.632812 3.167969 4.601562 3.191406 4.539062 3.238281 Z M 4.53125 3.234375 "/>
<path style=" stroke:none;fill-rule:nonzero;fill:rgb(0%,0%,0%);fill-opacity:1;" d="M 4.957031 1.746094 C 5.035156 1.707031 5.070312 1.691406 5.148438 1.65625 C 5.242188 1.863281 5.292969 1.964844 5.386719 2.171875 C 5.421875 2.253906 5.449219 2.304688 5.464844 2.328125 C 5.492188 2.363281 5.523438 2.386719 5.558594 2.398438 C 5.59375 2.410156 5.636719 2.40625 5.6875 2.386719 C 5.734375 2.367188 5.765625 2.339844 5.78125 2.308594 C 5.792969 2.277344 5.800781 2.242188 5.792969 2.207031 C 5.78125 2.171875 5.761719 2.113281 5.734375 2.035156 C 5.648438 1.820312 5.605469 1.710938 5.523438 1.496094 C 5.601562 1.464844 5.636719 1.449219 5.71875 1.421875 C 5.792969 1.628906 5.828125 1.734375 5.90625 1.941406 C 5.949219 2.058594 5.972656 2.144531 5.980469 2.195312 C 5.988281 2.246094 5.988281 2.296875 5.976562 2.339844 C 5.964844 2.382812 5.941406 2.421875 5.90625 2.457031 C 5.875 2.488281 5.824219 2.519531 5.761719 2.546875 C 5.6875 2.578125 5.621094 2.597656 5.574219 2.59375 C 5.523438 2.589844 5.480469 2.578125 5.4375 2.558594 C 5.398438 2.535156 5.367188 2.507812 5.34375 2.476562 C 5.304688 2.425781 5.261719 2.351562 5.207031 2.246094 C 5.105469 2.042969 5.054688 1.945312 4.957031 1.746094 Z M 4.957031 1.746094 "/>
<path style=" stroke:none;fill-rule:nonzero;fill:rgb(0%,0%,0%);fill-opacity:1;" d="M 6.257812 2.351562 C 6.125 1.953125 6.0625 1.753906 5.933594 1.355469 C 6.101562 1.300781 6.1875 1.28125 6.355469 1.238281 C 6.464844 1.210938 6.542969 1.203125 6.597656 1.210938 C 6.652344 1.21875 6.695312 1.246094 6.734375 1.285156 C 6.773438 1.328125 6.796875 1.378906 6.808594 1.4375 C 6.824219 1.515625 6.816406 1.582031 6.785156 1.644531 C 6.753906 1.703125 6.621094 1.777344 6.621094 1.777344 C 6.621094 1.78125 6.707031 1.816406 6.738281 1.84375 C 6.773438 1.867188 6.820312 1.914062 6.878906 1.988281 C 6.9375 2.058594 6.964844 2.09375 7.023438 2.167969 C 6.941406 2.183594 6.898438 2.191406 6.816406 2.207031 C 6.746094 2.128906 6.710938 2.09375 6.636719 2.015625 C 6.570312 1.945312 6.527344 1.90625 6.503906 1.890625 C 6.480469 1.875 6.457031 1.863281 6.4375 1.863281 C 6.414062 1.859375 6.382812 1.863281 6.34375 1.875 C 6.328125 1.878906 6.320312 1.882812 6.304688 1.886719 C 6.351562 2.054688 6.378906 2.140625 6.425781 2.308594 C 6.359375 2.328125 6.324219 2.335938 6.257812 2.359375 Z M 6.257812 1.71875 C 6.316406 1.703125 6.34375 1.699219 6.398438 1.683594 C 6.488281 1.660156 6.546875 1.644531 6.566406 1.628906 C 6.585938 1.613281 6.601562 1.597656 6.609375 1.574219 C 6.617188 1.550781 6.617188 1.519531 6.613281 1.488281 C 6.601562 1.457031 6.589844 1.429688 6.566406 1.414062 C 6.542969 1.394531 6.515625 1.386719 6.480469 1.390625 C 6.464844 1.390625 6.414062 1.402344 6.335938 1.421875 C 6.273438 1.4375 6.246094 1.445312 6.183594 1.464844 C 6.214844 1.566406 6.226562 1.617188 6.257812 1.71875 Z M 6.257812 1.71875 "/>
<path style=" stroke:none;fill-rule:nonzero;fill:rgb(0%,0%,0%);fill-opacity:1;" d="M 7.113281 2.152344 C 7.042969 1.738281 7.011719 1.53125 6.941406 1.117188 C 7.023438 1.105469 7.066406 1.097656 7.148438 1.085938 C 7.207031 1.5 7.234375 1.707031 7.289062 2.125 C 7.21875 2.132812 7.183594 2.140625 7.113281 2.152344 Z M 7.113281 2.152344 "/>
<path style=" stroke:none;fill-rule:nonzero;fill:rgb(0%,0%,0%);fill-opacity:1;" d="M 7.792969 2.082031 C 7.773438 1.664062 7.765625 1.453125 7.742188 1.035156 C 7.824219 1.03125 7.867188 1.03125 7.949219 1.03125 C 7.953125 1.195312 7.953125 1.277344 7.957031 1.441406 C 8.109375 1.4375 8.1875 1.4375 8.339844 1.449219 C 8.347656 1.28125 8.351562 1.199219 8.359375 1.035156 C 8.441406 1.039062 8.484375 1.042969 8.566406 1.046875 C 8.535156 1.464844 8.519531 1.675781 8.492188 2.09375 C 8.421875 2.085938 8.386719 2.085938 8.316406 2.082031 C 8.324219 1.902344 8.328125 1.808594 8.335938 1.625 C 8.183594 1.621094 8.109375 1.621094 7.960938 1.621094 C 7.964844 1.804688 7.964844 1.894531 7.96875 2.078125 C 7.898438 2.078125 7.863281 2.082031 7.792969 2.082031 Z M 7.792969 2.082031 "/>
<path style=" stroke:none;fill-rule:nonzero;fill:rgb(0%,0%,0%);fill-opacity:1;" d="M 9.457031 2.234375 C 9.382812 2.21875 9.34375 2.207031 9.265625 2.195312 C 9.253906 2.09375 9.25 2.046875 9.234375 1.945312 C 9.089844 1.921875 9.019531 1.910156 8.875 1.890625 C 8.832031 1.980469 8.8125 2.027344 8.773438 2.117188 C 8.699219 2.109375 8.660156 2.105469 8.585938 2.097656 C 8.757812 1.691406 8.859375 1.488281 9.078125 1.097656 C 9.164062 1.109375 9.207031 1.117188 9.296875 1.132812 C 9.386719 1.574219 9.417969 1.792969 9.457031 2.234375 Z M 9.210938 1.757812 C 9.191406 1.597656 9.175781 1.515625 9.148438 1.355469 C 9.070312 1.5 9.03125 1.574219 8.960938 1.71875 C 9.0625 1.734375 9.113281 1.742188 9.210938 1.761719 Z M 9.210938 1.757812 "/>
<path style=" stroke:none;fill-rule:nonzero;fill:rgb(0%,0%,0%);fill-opacity:1;" d="M 9.554688 2.257812 C 9.65625 1.851562 9.710938 1.644531 9.8125 1.242188 C 9.894531 1.261719 9.933594 1.273438 10.011719 1.292969 C 10.09375 1.605469 10.128906 1.765625 10.179688 2.078125 C 10.273438 1.8125 10.320312 1.679688 10.414062 1.417969 C 10.488281 1.445312 10.527344 1.460938 10.597656 1.484375 C 10.445312 1.875 10.371094 2.070312 10.21875 2.460938 C 10.152344 2.433594 10.117188 2.425781 10.050781 2.402344 C 10.007812 2.097656 9.976562 1.945312 9.898438 1.636719 C 9.824219 1.902344 9.785156 2.03125 9.707031 2.292969 C 9.644531 2.277344 9.613281 2.269531 9.550781 2.25 Z M 9.554688 2.257812 "/>
<path style=" stroke:none;fill-rule:nonzero;fill:rgb(0%,0%,0%);fill-opacity:1;" d="M 10.800781 1.566406 C 10.941406 1.625 11.015625 1.65625 11.152344 1.726562 C 11.230469 1.761719 11.285156 1.800781 11.320312 1.832031 C 11.367188 1.878906 11.398438 1.929688 11.410156 1.992188 C 11.425781 2.054688 11.429688 2.121094 11.414062 2.1875 C 11.398438 2.257812 11.367188 2.332031 11.316406 2.417969 C 11.273438 2.492188 11.226562 2.550781 11.179688 2.597656 C 11.121094 2.652344 11.0625 2.691406 11.003906 2.710938 C 10.957031 2.726562 10.90625 2.730469 10.847656 2.726562 C 10.804688 2.71875 10.753906 2.703125 10.695312 2.671875 C 10.574219 2.613281 10.515625 2.585938 10.390625 2.535156 L 10.800781 1.570312 Z M 10.921875 1.8125 C 10.804688 2.0625 10.746094 2.1875 10.628906 2.441406 C 10.679688 2.464844 10.703125 2.476562 10.753906 2.496094 C 10.796875 2.519531 10.835938 2.535156 10.859375 2.539062 C 10.890625 2.542969 10.917969 2.542969 10.945312 2.53125 C 10.972656 2.523438 11.003906 2.5 11.035156 2.464844 C 11.070312 2.433594 11.105469 2.378906 11.144531 2.308594 C 11.183594 2.238281 11.207031 2.175781 11.214844 2.132812 C 11.222656 2.089844 11.222656 2.050781 11.210938 2.019531 C 11.199219 1.984375 11.179688 1.957031 11.148438 1.929688 C 11.128906 1.910156 11.078125 1.882812 11.003906 1.847656 C 10.96875 1.832031 10.953125 1.824219 10.921875 1.808594 Z M 10.921875 1.8125 "/>
<path style=" stroke:none;fill-rule:nonzero;fill:rgb(0%,0%,0%);fill-opacity:1;" d="M 11.847656 3.414062 C 11.785156 3.363281 11.753906 3.339844 11.691406 3.289062 C 11.726562 3.195312 11.742188 3.148438 11.773438 3.050781 C 11.652344 2.960938 11.589844 2.917969 11.464844 2.835938 C 11.390625 2.898438 11.347656 2.929688 11.273438 2.996094 C 11.207031 2.953125 11.175781 2.933594 11.109375 2.894531 C 11.445312 2.605469 11.625 2.46875 11.996094 2.214844 C 12.070312 2.265625 12.105469 2.289062 12.179688 2.34375 C 12.070312 2.785156 12.003906 3 11.847656 3.414062 Z M 11.828125 2.871094 C 11.878906 2.714844 11.902344 2.636719 11.945312 2.476562 C 11.8125 2.570312 11.742188 2.621094 11.613281 2.722656 C 11.703125 2.78125 11.742188 2.808594 11.828125 2.871094 Z M 11.828125 2.871094 "/>
<path style=" stroke:none;fill-rule:nonzero;fill:rgb(0%,0%,0%);fill-opacity:1;" d="M 12.015625 3.554688 C 12.136719 3.425781 12.191406 3.359375 12.3125 3.226562 C 12.367188 2.949219 12.386719 2.808594 12.417969 2.519531 C 12.496094 2.582031 12.535156 2.617188 12.613281 2.683594 C 12.582031 2.875 12.5625 2.96875 12.523438 3.15625 C 12.703125 3.097656 12.792969 3.070312 12.984375 3.023438 C 13.054688 3.09375 13.09375 3.128906 13.160156 3.203125 C 12.875 3.253906 12.734375 3.285156 12.460938 3.359375 C 12.335938 3.488281 12.277344 3.554688 12.15625 3.679688 C 12.101562 3.628906 12.078125 3.605469 12.019531 3.558594 Z M 12.015625 3.554688 "/>
<path style=" stroke:none;fill-rule:nonzero;fill:rgb(0%,0%,0%);fill-opacity:1;" d="M 12.90625 4.570312 C 12.855469 4.5 12.832031 4.464844 12.78125 4.398438 C 12.839844 4.316406 12.863281 4.273438 12.921875 4.1875 C 12.824219 4.0625 12.777344 4 12.671875 3.882812 C 12.578125 3.921875 12.53125 3.941406 12.441406 3.984375 C 12.386719 3.925781 12.363281 3.898438 12.304688 3.839844 C 12.707031 3.652344 12.917969 3.566406 13.34375 3.421875 C 13.40625 3.496094 13.433594 3.53125 13.492188 3.609375 C 13.277344 4.011719 13.15625 4.207031 12.902344 4.574219 Z M 13.019531 4.023438 C 13.105469 3.882812 13.148438 3.8125 13.226562 3.667969 C 13.074219 3.722656 12.996094 3.753906 12.84375 3.8125 C 12.914062 3.894531 12.949219 3.9375 13.015625 4.023438 Z M 13.019531 4.023438 "/>
<path style=" stroke:none;fill-rule:nonzero;fill:rgb(0%,0%,0%);fill-opacity:1;" d="M 12.964844 4.660156 C 13.3125 4.421875 13.488281 4.304688 13.832031 4.070312 C 13.882812 4.144531 13.90625 4.183594 13.953125 4.261719 C 13.816406 4.570312 13.738281 4.722656 13.574219 5.007812 C 13.820312 4.875 13.945312 4.808594 14.191406 4.675781 C 14.234375 4.753906 14.253906 4.792969 14.292969 4.875 L 13.355469 5.34375 C 13.320312 5.269531 13.300781 5.230469 13.261719 5.160156 C 13.425781 4.886719 13.503906 4.746094 13.640625 4.453125 C 13.410156 4.597656 13.292969 4.667969 13.0625 4.816406 C 13.023438 4.753906 13.007812 4.722656 12.964844 4.664062 Z M 12.964844 4.660156 "/>
<path style=" stroke:none;fill-rule:nonzero;fill:rgb(0%,0%,0%);fill-opacity:1;" d="M 13.449219 5.527344 C 13.828125 5.355469 14.023438 5.265625 14.402344 5.09375 C 14.441406 5.179688 14.460938 5.226562 14.5 5.316406 C 14.113281 5.476562 13.921875 5.558594 13.53125 5.71875 C 13.5 5.640625 13.484375 5.601562 13.449219 5.527344 Z M 13.449219 5.527344 "/>
<path style=" stroke:none;fill-rule:nonzero;fill:rgb(0%,0%,0%);fill-opacity:1;" d="M 7.773438 11.230469 C 7.855469 11.152344 8.148438 11.15625 8.238281 11.230469 C 8.335938 11.308594 8.3125 11.71875 8.3125 11.71875 C 8.3125 11.71875 8.484375 11.9375 8.476562 12.023438 C 8.46875 12.183594 8.160156 12.476562 7.992188 12.476562 C 7.820312 12.476562 7.515625 12.175781 7.507812 12.011719 C 7.5 11.921875 7.675781 11.695312 7.675781 11.695312 C 7.675781 11.695312 7.683594 11.316406 7.769531 11.230469 Z M 7.777344 11.71875 C 7.777344 11.71875 7.65625 11.90625 7.660156 11.980469 C 7.667969 12.117188 7.878906 12.363281 7.996094 12.363281 C 8.109375 12.363281 8.320312 12.125 8.328125 11.988281 C 8.328125 11.917969 8.210938 11.738281 8.210938 11.738281 C 8.210938 11.738281 8.230469 11.402344 8.160156 11.335938 C 8.101562 11.277344 7.898438 11.273438 7.84375 11.335938 C 7.785156 11.40625 7.777344 11.722656 7.777344 11.722656 Z M 7.777344 11.71875 "/>
<path style=" stroke:none;fill-rule:nonzero;fill:rgb(100%,100%,100%);fill-opacity:1;" d="M 8.390625 9.242188 C 8.242188 9.011719 8.101562 8.746094 8.003906 8.429688 C 7.878906 8.753906 7.953125 9.074219 8.011719 9.34375 C 8.078125 9.65625 8.152344 9.96875 7.992188 10.453125 C 7.933594 10.632812 7.777344 10.511719 7.824219 10.40625 C 8.097656 9.769531 7.769531 9.171875 7.6875 8.996094 C 7.625 9.21875 7.445312 9.472656 7.351562 9.6875 C 7.214844 9.988281 7.164062 10.371094 7.351562 10.648438 C 7.386719 10.703125 7.433594 10.75 7.484375 10.796875 C 7.527344 10.828125 7.578125 10.859375 7.632812 10.890625 C 7.660156 10.871094 7.699219 10.851562 7.734375 10.835938 C 7.746094 10.828125 7.757812 10.824219 7.769531 10.820312 C 7.839844 10.796875 7.917969 10.78125 7.996094 10.78125 C 8.109375 10.78125 8.21875 10.808594 8.3125 10.859375 C 8.328125 10.871094 8.347656 10.878906 8.363281 10.890625 C 8.707031 10.710938 8.792969 10.382812 8.753906 10.070312 C 8.742188 10.007812 8.730469 9.9375 8.710938 9.875 C 8.691406 9.808594 8.667969 9.75 8.644531 9.691406 C 8.574219 9.539062 8.484375 9.394531 8.390625 9.246094 Z M 8.390625 9.242188 "/>
<path style=" stroke:none;fill-rule:nonzero;fill:rgb(98.431373%,82.352942%,2.352941%);fill-opacity:1;" d="M 8.085938 8.015625 C 8.167969 8.617188 8.367188 8.84375 8.550781 9.15625 C 8.648438 9.3125 8.738281 9.457031 8.8125 9.625 C 8.839844 9.691406 8.867188 9.761719 8.886719 9.832031 C 8.90625 9.902344 8.921875 9.976562 8.929688 10.050781 C 8.980469 10.445312 8.863281 10.859375 8.386719 11.074219 L 8.332031 11.097656 L 8.285156 11.0625 C 8.273438 11.050781 8.261719 11.046875 8.253906 11.035156 C 8.242188 11.027344 8.230469 11.023438 8.214844 11.015625 C 8.148438 10.980469 8.074219 10.957031 7.992188 10.957031 C 7.933594 10.957031 7.878906 10.96875 7.832031 10.984375 C 7.824219 10.988281 7.816406 10.992188 7.808594 10.996094 C 7.769531 11.011719 7.734375 11.035156 7.699219 11.0625 L 7.652344 11.097656 L 7.597656 11.074219 L 7.59375 11.074219 C 7.503906 11.03125 7.425781 10.984375 7.359375 10.929688 C 7.289062 10.875 7.234375 10.8125 7.195312 10.746094 C 6.972656 10.410156 7.027344 9.964844 7.175781 9.628906 C 7.300781 9.347656 7.523438 9.117188 7.582031 8.765625 C 7.601562 8.640625 7.625 8.511719 7.734375 8.722656 C 7.753906 8.753906 7.773438 8.792969 7.789062 8.855469 C 7.734375 8.636719 7.902344 8.160156 7.960938 8.003906 C 8.015625 7.863281 8.066406 7.820312 8.082031 8.019531 Z M 8.085938 8.015625 "/>
<path style="fill:none;stroke-width:5.191;stroke-linecap:butt;stroke-linejoin:miter;stroke:rgb(0%,0%,0%);stroke-opacity:1;stroke-miterlimit:4;" d="M 202.148438 200.390625 C 204.199219 215.429688 209.179688 221.09375 213.769531 228.90625 C 216.210938 232.8125 218.457031 236.425781 220.3125 240.625 " transform="matrix(0.04,0,0,0.04,0,0)"/>
<path style="fill:none;stroke-width:5.191;stroke-linecap:butt;stroke-linejoin:miter;stroke:rgb(0%,0%,0%);stroke-opacity:1;stroke-miterlimit:4;" d="M 220.214844 240.625 C 220.898438 242.1875 221.582031 243.945312 222.070312 245.800781 C 222.558594 247.558594 222.949219 249.414062 223.242188 251.269531 C 224.511719 261.132812 221.484375 271.386719 209.667969 276.757812 " transform="matrix(0.04,0,0,0.04,0,0)"/>
<path style="fill:none;stroke-width:5.191;stroke-linecap:butt;stroke-linejoin:miter;stroke:rgb(0%,0%,0%);stroke-opacity:1;stroke-miterlimit:4;" d="M 209.667969 276.757812 L 208.300781 277.441406 L 207.128906 276.464844 " transform="matrix(0.04,0,0,0.04,0,0)"/>
<path style="fill:none;stroke-width:5.191;stroke-linecap:butt;stroke-linejoin:miter;stroke:rgb(0%,0%,0%);stroke-opacity:1;stroke-miterlimit:4;" d="M 207.128906 276.464844 C 206.835938 276.171875 206.542969 276.074219 206.25 275.878906 C 205.957031 275.683594 205.664062 275.488281 205.371094 275.292969 C 203.710938 274.414062 201.757812 273.828125 199.707031 273.828125 C 198.339844 273.828125 196.972656 274.121094 195.800781 274.609375 C 195.507812 274.609375 195.3125 274.707031 195.214844 274.804688 C 194.238281 275.195312 193.261719 275.78125 192.382812 276.464844 " transform="matrix(0.04,0,0,0.04,0,0)"/>
<path style="fill:none;stroke-width:5.191;stroke-linecap:butt;stroke-linejoin:miter;stroke:rgb(0%,0%,0%);stroke-opacity:1;stroke-miterlimit:4;" d="M 192.480469 276.464844 L 191.308594 277.441406 L 189.84375 276.757812 " transform="matrix(0.04,0,0,0.04,0,0)"/>
<path style="fill:none;stroke-width:5.191;stroke-linecap:butt;stroke-linejoin:miter;stroke:rgb(0%,0%,0%);stroke-opacity:1;stroke-miterlimit:4;" d="M 189.84375 276.757812 C 187.597656 275.683594 185.644531 274.511719 183.886719 273.144531 C 182.226562 271.777344 180.859375 270.214844 179.785156 268.554688 C 174.21875 260.15625 175.585938 249.121094 179.296875 240.625 C 182.421875 233.59375 187.988281 227.832031 189.453125 219.042969 C 189.941406 215.917969 190.527344 212.695312 193.261719 217.96875 C 193.75 218.75 194.238281 219.824219 194.726562 221.386719 C 193.261719 215.820312 197.558594 204.003906 199.023438 200 C 200.390625 196.484375 201.660156 195.410156 202.050781 200.390625 " transform="matrix(0.04,0,0,0.04,0,0)"/>
<path style=" stroke:none;fill-rule:nonzero;fill:rgb(0%,0%,0%);fill-opacity:1;" d="M 7.800781 8.6875 C 7.800781 8.6875 8.074219 9.257812 8.109375 9.5625 C 8.140625 9.847656 7.832031 10.4375 7.832031 10.4375 C 7.832031 10.4375 7.984375 9.886719 7.960938 9.59375 C 7.945312 9.335938 7.703125 8.816406 7.703125 8.816406 Z M 7.800781 8.6875 "/>
<path style="fill:none;stroke-width:0.74162;stroke-linecap:butt;stroke-linejoin:miter;stroke:rgb(0%,0%,0%);stroke-opacity:1;stroke-miterlimit:4;" d="M 200.097656 350.878906 C 206.054688 350.390625 210.742188 348.4375 216.308594 346.386719 C 224.707031 343.164062 232.226562 340.429688 247.167969 344.140625 C 251.269531 345.214844 255.664062 347.070312 260.253906 349.023438 C 269.921875 353.125 280.566406 357.714844 292.96875 356.738281 " transform="matrix(0.04,0,0,0.04,0,0)"/>
<path style="fill:none;stroke-width:0.74162;stroke-linecap:butt;stroke-linejoin:miter;stroke:rgb(0%,0%,0%);stroke-opacity:1;stroke-miterlimit:4;" d="M 293.066406 356.738281 L 294.140625 352.734375 " transform="matrix(0.04,0,0,0.04,0,0)"/>
<path style="fill:none;stroke-width:0.74162;stroke-linecap:butt;stroke-linejoin:miter;stroke:rgb(0%,0%,0%);stroke-opacity:1;stroke-miterlimit:4;" d="M 294.140625 352.734375 C 288.769531 348.632812 287.109375 340.722656 285.449219 333.300781 C 285.058594 331.25 284.570312 329.394531 284.082031 327.34375 " transform="matrix(0.04,0,0,0.04,0,0)"/>
<path style="fill:none;stroke-width:0.74162;stroke-linecap:butt;stroke-linejoin:miter;stroke:rgb(0%,0%,0%);stroke-opacity:1;stroke-miterlimit:4;" d="M 284.082031 327.34375 L 283.691406 325.78125 L 282.03125 325.683594 " transform="matrix(0.04,0,0,0.04,0,0)"/>
<path style="fill:none;stroke-width:0.74162;stroke-linecap:butt;stroke-linejoin:miter;stroke:rgb(0%,0%,0%);stroke-opacity:1;stroke-miterlimit:4;" d="M 282.128906 325.683594 C 272.949219 325 266.699219 322.167969 258.59375 319.335938 C 255.175781 318.164062 252.34375 316.40625 247.949219 315.039062 C 236.035156 311.230469 223.730469 314.84375 213.574219 317.480469 C 208.203125 318.75 203.808594 322.363281 199.023438 322.558594 " transform="matrix(0.04,0,0,0.04,0,0)"/>
<path style="fill:none;stroke-width:0.74162;stroke-linecap:butt;stroke-linejoin:miter;stroke:rgb(0%,0%,0%);stroke-opacity:1;stroke-miterlimit:4;" d="M 198.925781 322.460938 L 198.242188 322.460938 " transform="matrix(0.04,0,0,0.04,0,0)"/>
<path style="fill:none;stroke-width:0.74162;stroke-linecap:butt;stroke-linejoin:miter;stroke:rgb(0%,0%,0%);stroke-opacity:1;stroke-miterlimit:4;" d="M 198.242188 322.460938 C 193.457031 322.363281 192.089844 318.75 186.71875 317.382812 C 176.5625 314.84375 165.527344 312.011719 153.613281 315.722656 C 149.21875 317.089844 144.433594 320.019531 140.917969 321.191406 C 132.8125 324.121094 126.464844 325.976562 118.164062 325.585938 " transform="matrix(0.04,0,0,0.04,0,0)"/>
<path style="fill:none;stroke-width:0.74162;stroke-linecap:butt;stroke-linejoin:miter;stroke:rgb(0%,0%,0%);stroke-opacity:1;stroke-miterlimit:4;" d="M 118.164062 325.683594 L 116.601562 325.78125 L 116.113281 327.34375 " transform="matrix(0.04,0,0,0.04,0,0)"/>
<path style="fill:none;stroke-width:0.74162;stroke-linecap:butt;stroke-linejoin:miter;stroke:rgb(0%,0%,0%);stroke-opacity:1;stroke-miterlimit:4;" d="M 116.113281 327.34375 C 115.527344 329.394531 115.234375 331.347656 114.746094 333.300781 C 113.085938 340.722656 111.328125 348.632812 106.054688 352.734375 " transform="matrix(0.04,0,0,0.04,0,0)"/>
<path style="fill:none;stroke-width:0.74162;stroke-linecap:butt;stroke-linejoin:miter;stroke:rgb(0%,0%,0%);stroke-opacity:1;stroke-miterlimit:4;" d="M 106.152344 352.734375 L 107.324219 356.738281 " transform="matrix(0.04,0,0,0.04,0,0)"/>
<path style="fill:none;stroke-width:0.74162;stroke-linecap:butt;stroke-linejoin:miter;stroke:rgb(0%,0%,0%);stroke-opacity:1;stroke-miterlimit:4;" d="M 107.324219 356.738281 C 119.726562 357.8125 130.46875 353.222656 140.039062 349.023438 C 144.628906 347.070312 149.023438 345.214844 153.125 344.140625 C 167.96875 340.332031 175.488281 343.164062 183.984375 346.386719 C 189.453125 348.4375 194.238281 350.390625 200.195312 350.878906 " transform="matrix(0.04,0,0,0.04,0,0)"/>
</g>
</svg>
